<?xml version="1.0" encoding="UTF-8" standalone="no"?>
<!-- Created with Inkscape (http://www.inkscape.org/) -->

<svg
   width="45mm"
   height="45mm"
   viewBox="0 0 45 45"
   version="1.1"
   id="svg1"
   xml:space="preserve"
   inkscape:version="1.3.2 (091e20e, 2023-11-25, custom)"
   sodipodi:docname="smartstage_icon.svg"
   xmlns:inkscape="http://www.inkscape.org/namespaces/inkscape"
   xmlns:sodipodi="http://sodipodi.sourceforge.net/DTD/sodipodi-0.dtd"
   xmlns="http://www.w3.org/2000/svg"
   xmlns:svg="http://www.w3.org/2000/svg"><sodipodi:namedview
     id="namedview1"
     pagecolor="#ffffff"
     bordercolor="#000000"
     borderopacity="0.25"
     inkscape:showpageshadow="2"
     inkscape:pageopacity="0.0"
     inkscape:pagecheckerboard="0"
     inkscape:deskcolor="#d1d1d1"
     inkscape:document-units="mm"
     inkscape:zoom="0.80087682"
     inkscape:cx="126.11178"
     inkscape:cy="-126.73609"
     inkscape:window-width="1920"
     inkscape:window-height="1137"
     inkscape:window-x="-8"
     inkscape:window-y="-8"
     inkscape:window-maximized="1"
     inkscape:current-layer="layer1" /><defs
     id="defs1" /><g
     inkscape:label="Layer 1"
     inkscape:groupmode="layer"
     id="layer1"
     transform="translate(-14.020508,-175.77151)"><g
       id="g2"
       transform="translate(4.3702745,1.685205)"><path
         style="fill:#115f7f;fill-opacity:1"
         d="m 41.813233,208.01659 v -4.05873 l 1.487589,-0.83954 1.487589,-0.83955 -0.230818,-0.22296 -0.230818,-0.22297 -8.995833,-5.21273 -8.995834,-5.21272 -0.330729,-0.26471 -0.330729,-0.26471 v -5.74084 -5.74084 l 3.149691,-1.8114 3.149692,-1.81139 0.183482,-9.9e-4 0.183483,-0.001 8.96268,5.13823 8.962681,5.13823 0.0073,3.92202 0.0073,3.92203 -1.389062,-0.79738 -1.389063,-0.79738 -7.276042,-4.21547 -7.276041,-4.21548 -1.521354,0.82117 -1.521355,0.82118 0.0034,0.13736 0.0034,0.13737 10.116954,5.82145 10.116954,5.82145 0.06542,4.89417 0.06542,4.89418 -4.232608,2.43034 -4.232608,2.43033 z"
         id="path1"
         sodipodi:nodetypes="ccccccccccccccccccccccccccccccccccc" /><path
         style="fill:#4197b5;fill-opacity:1"
         d="m 22.961671,212.18696 -8.929688,-5.16922 v -3.80416 -3.80415 h 0.108323 0.108322 l 8.720846,5.03315 8.720846,5.03316 1.489582,-0.85558 1.489581,-0.85557 -0.0032,-0.14268 -0.0032,-0.14269 -10.321288,-5.93866 -10.321287,-5.93865 0.07191,-4.76072 0.07191,-4.76072 3.836458,-2.22358 3.836459,-2.22358 0.330729,-0.13608 0.330729,-0.13608 v 3.9718 3.9718 l -1.486022,0.83866 -1.486022,0.83866 0.493834,0.33741 0.493835,0.33741 5.027083,2.84628 5.027084,2.84629 4.034896,2.40665 4.034895,2.40666 v 5.84846 5.84845 l -3.062003,1.77071 -3.062003,1.77071 -0.311434,-0.0225 -0.311435,-0.0224 z"
         id="path2"
         sodipodi:nodetypes="ccccccccccccccccccccccccccccccccccccc" /></g></g></svg>
