<?xml version="1.0" encoding="UTF-8" standalone="no"?>
<!-- Created with Inkscape (http://www.inkscape.org/) -->
<svg
   xmlns:dc="http://purl.org/dc/elements/1.1/"
   xmlns:cc="http://creativecommons.org/ns#"
   xmlns:rdf="http://www.w3.org/1999/02/22-rdf-syntax-ns#"
   xmlns:svg="http://www.w3.org/2000/svg"
   xmlns="http://www.w3.org/2000/svg"
   xmlns:sodipodi="http://sodipodi.sourceforge.net/DTD/sodipodi-0.dtd"
   xmlns:inkscape="http://www.inkscape.org/namespaces/inkscape"
   width="1012.3725"
   height="1171.9728"
   id="svg2"
   version="1.1"
   inkscape:version="0.46"
   sodipodi:docname="ThalamocorticalMarker.svg"
   sodipodi:version="0.32"
   inkscape:output_extension="org.inkscape.output.svg.inkscape">
  <defs
     id="defs4">
    <inkscape:perspective
       sodipodi:type="inkscape:persp3d"
       inkscape:vp_x="0 : 526.18109 : 1"
       inkscape:vp_y="0 : 1000 : 0"
       inkscape:vp_z="744.09448 : 526.18109 : 1"
       inkscape:persp3d-origin="372.04724 : 350.78739 : 1"
       id="perspective10" />
    <inkscape:perspective
       id="perspective2824"
       inkscape:persp3d-origin="0.5 : 0.33333333 : 1"
       inkscape:vp_z="1 : 0.5 : 1"
       inkscape:vp_y="0 : 1000 : 0"
       inkscape:vp_x="0 : 0.5 : 1"
       sodipodi:type="inkscape:persp3d" />
    <inkscape:perspective
       id="perspective2927"
       inkscape:persp3d-origin="0.5 : 0.33333333 : 1"
       inkscape:vp_z="1 : 0.5 : 1"
       inkscape:vp_y="0 : 1000 : 0"
       inkscape:vp_x="0 : 0.5 : 1"
       sodipodi:type="inkscape:persp3d" />
  </defs>
  <sodipodi:namedview
     id="base"
     pagecolor="#ffffff"
     bordercolor="#666666"
     borderopacity="1.0"
     inkscape:pageopacity="0.0"
     inkscape:pageshadow="2"
     inkscape:zoom="0.72"
     inkscape:cx="300.0475"
     inkscape:cy="804.48119"
     inkscape:document-units="px"
     inkscape:current-layer="layer1"
     showgrid="false"
     inkscape:window-width="1231"
     inkscape:window-height="756"
     inkscape:window-x="42"
     inkscape:window-y="22"
     inkscape:window-maximized="1" />
  <metadata
     id="metadata7">
    <rdf:RDF>
      <cc:Work
         rdf:about="">
        <dc:format>image/svg+xml</dc:format>
        <dc:type
           rdf:resource="http://purl.org/dc/dcmitype/StillImage" />
        <dc:title />
      </cc:Work>
    </rdf:RDF>
  </metadata>
  <g
     inkscape:label="Layer 1"
     inkscape:groupmode="layer"
     id="layer1"
     transform="translate(293.53924,242.2978)">
    <path
       style="fill:none;fill-rule:evenodd;stroke:#7a7a7a;stroke-width:6;stroke-linecap:butt;stroke-linejoin:miter;stroke-miterlimit:4;stroke-dasharray:none;stroke-opacity:1"
       d="M -142.6254,261.16127 C -142.6254,261.16127 -146.5013,233.38295 -145.98957,221.43267 C -145.35308,206.56827 -142.27277,186.67855 -137.59598,172.55469 C -132.91637,158.42225 -125.33393,139.15478 -115.14597,128.29979 C -103.85158,116.26598 -83.026572,106.62346 -67.759712,100.35455 C -44.194549,90.678197 -10.577608,83.582327 14.590074,79.640784 C 36.668222,76.183062 66.710582,72.442164 88.927059,74.855924 C 116.69468,77.872791 153.4308,88.105226 178.38601,100.65033 C 199.48578,111.25732 226.41044,129.78448 241.01065,148.34632 C 255.14767,166.31934 266.46212,195.87727 271.60972,218.15701 C 273.71506,227.26911 274.94177,240.18064 272.88833,249.30454 C 270.38378,260.43292 263.32131,274.95063 255.20336,282.96389 C 245.44133,292.60001 227.72482,300.23126 214.45464,303.70329 C 198.37007,307.91176 175.70612,305.78271 159.08124,305.97637 C 141.38674,306.18249 117.79937,304.72453 100.10492,304.93067 C 87.636241,305.07593 58.574839,306.63546 58.574839,306.63546"
       id="path3638"
       sodipodi:nodetypes="csssssssssssssss" />
    <path
       style="fill:none;fill-rule:evenodd;stroke:#7a7a7a;stroke-width:6;stroke-linecap:butt;stroke-linejoin:miter;stroke-miterlimit:4;stroke-dasharray:none;stroke-opacity:1"
       d="M 83.071169,220.9685 C 83.071169,220.9685 45.12773,215.9466 29.303105,219.12138 C 14.921814,222.00661 -3.7106256,230.31503 -15.132227,239.51797 C -28.084908,249.95455 -41.805327,268.5886 -48.451575,283.83729 C -52.482321,293.08511 -54.929871,306.86301 -54.386062,316.93644 C -53.720359,329.26835 -50.044126,346.43599 -42.801236,356.43897 C -37.133261,364.26685 -25.684516,372.55171 -16.261763,374.69952 C -4.0094701,377.4923 12.867066,371.00961 25.128177,368.25585 C 35.087863,366.01897 57.758435,358.6105 57.758435,358.6105"
       id="path3640"
       sodipodi:nodetypes="cssssssss" />
    <path
       style="fill:none;fill-rule:evenodd;stroke:#7a7a7a;stroke-width:6;stroke-linecap:butt;stroke-linejoin:miter;stroke-miterlimit:4;stroke-dasharray:none;stroke-opacity:1"
       d="M 130.88333,83.533636 C 130.88333,83.533636 165.17149,84.019807 179.54818,86.735965 C 191.49941,88.993887 206.50548,95.624876 218.18567,99.016578 C 231.75863,102.95792 250.21627,106.92187 263.74484,111.01309 C 273.34968,113.91773 285.52989,119.98318 295.38961,121.84741 C 319.47068,126.40057 352.49575,125.39564 377.00343,125.43053 C 405.0598,125.47048 442.43395,123.16995 470.4461,121.59473 C 487.5725,120.63166 527.47888,117.52022 527.47888,117.52022"
       id="path3642"
       sodipodi:nodetypes="csssssss" />
    <path
       style="fill:none;fill-rule:evenodd;stroke:#7a7a7a;stroke-width:6;stroke-linecap:butt;stroke-linejoin:miter;stroke-miterlimit:4;stroke-dasharray:none;stroke-opacity:1"
       d="M -211.73388,-28.935496 C -211.73388,-28.935496 -146.2983,-67.610965 -116.81929,-81.365098 C -90.465096,-93.661251 -54.382075,-108.40705 -26.385696,-116.27741 C -4.669806,-122.38217 25.284347,-126.39298 47.596137,-129.71434 C 68.209865,-132.78294 95.802885,-136.39436 116.59983,-137.74693 C 135.79013,-138.99503 154.61588,-136.43246 173.84573,-136.63019 C 188.9212,-136.78521 198.34742,-136.19793 213.42366,-136.16974 C 227.378,-136.14361 244.01387,-136.07031 249.8249,-134.91935 C 258.2613,-133.24836 279.36838,-128.9728 290.28104,-129.27648 C 312.9076,-129.90614 322.69169,-129.18579 345.29072,-130.46692 C 367.32432,-131.716 384.13598,-131.61458 401.31203,-131.79943 C 421.5738,-132.01745 448.54347,-129.09971 468.79836,-129.67122 C 489.05993,-130.24294 516.08984,-130.32361 536.35575,-130.71112 C 564.93121,-131.25751 631.59984,-132.88753 631.59984,-132.88753"
       id="path3644"
       sodipodi:nodetypes="csssssssssssss" />
    <g
       id="g4428"
       transform="matrix(2.5559743,0,0,2.6280236,-1022.9035,-307.32532)"
       style="stroke-width:2.31503936;stroke-miterlimit:4;stroke-dasharray:none">
      <path
         sodipodi:nodetypes="cc"
         id="path4424"
         d="M 506.02622,63.573403 C 505.78446,142.57137 505.72345,178.8939 505.60046,229.85071"
         style="fill:none;fill-rule:evenodd;stroke:#e50000;stroke-width:2.31503936;stroke-linecap:butt;stroke-linejoin:miter;stroke-miterlimit:4;stroke-dasharray:none;stroke-opacity:1" />
      <path
         sodipodi:nodetypes="cc"
         id="path4426"
         d="M 390.86569,62.880801 L 620.76099,63.05016"
         style="fill:none;fill-rule:evenodd;stroke:#df0000;stroke-width:2.31503936;stroke-linecap:butt;stroke-linejoin:miter;stroke-miterlimit:4;stroke-dasharray:none;stroke-opacity:1" />
    </g>
    <text
       xml:space="preserve"
       style="font-size:61.34338379px;font-style:normal;font-variant:normal;font-weight:bold;font-stretch:normal;text-align:start;line-height:125%;writing-mode:lr-tb;text-anchor:start;fill:#ff0000;fill-opacity:1;stroke:none;stroke-width:1px;stroke-linecap:butt;stroke-linejoin:miter;stroke-opacity:1;font-family:Arial;-inkscape-font-specification:Arial Bold"
       x="-24.702246"
       y="-156.82368"
       id="text4441"
       sodipodi:linespacing="125%"><tspan
         sodipodi:role="line"
         id="tspan4443"
         x="-24.702246"
         y="-156.82368">P</tspan></text>
    <text
       xml:space="preserve"
       style="font-size:61.34338379px;font-style:normal;font-variant:normal;font-weight:bold;font-stretch:normal;text-align:start;line-height:125%;writing-mode:lr-tb;text-anchor:start;fill:#ff0000;fill-opacity:1;stroke:none;stroke-width:1px;stroke-linecap:butt;stroke-linejoin:miter;stroke-opacity:1;font-family:Arial;-inkscape-font-specification:Arial Bold"
       x="514.34467"
       y="-159.91331"
       id="text4445"
       sodipodi:linespacing="125%"><tspan
         sodipodi:role="line"
         id="tspan4447"
         x="514.34467"
         y="-159.91331">A</tspan></text>
  </g>
</svg>
